<svg id="Layer_5" enable-background="new 0 0 64 64" height="512" viewBox="0 0 64 64" width="512" xmlns="http://www.w3.org/2000/svg"><g><path d="m63 1h-48v32.308c-2.231.445-4.51.692-6.817.692h-.183c-3.86 0-7 3.14-7 7 0 3.481 2.557 6.368 5.89 6.903l1.11 2.344v8.753c0 2.206 1.794 4 4 4s4-1.794 4-4v-10.106c4.057.936 7.929 2.594 11.445 4.938l.252.168h5.303v-5h30zm-34 27h-1.303l-.252.168c-.796.531-1.615 1.018-2.445 1.479v-8.647h4zm-2 2.786v20.428c-4.886-2.921-10.337-4.67-16-5.102v-10.224c5.663-.432 11.114-2.181 16-5.102zm-24 10.214c0-2.757 2.243-5 5-5h.183c.274 0 .544-.023.817-.03v10.06c-.273-.007-.543-.03-.817-.03h-.183c-2.757 0-5-2.243-5-5zm11 18c0 1.103-.897 2-2 2s-2-.897-2-2v-9.203l-.834-1.761c1.629.046 3.243.201 4.834.471zm17-7h-2v-22h2zm10-5h-4v-30h4zm12 0h-4v-22h4zm8 0h-6v-24h-8v24h-4v-32h-8v32h-2v-19h-2v-9h-8v11.683c-1.931.912-3.942 1.62-6 2.16v-29.843h44z"/><path d="m27 17c2.206 0 4-1.794 4-4 0-.093-.021-.179-.027-.27l4.677-1.559c.713 1.098 1.946 1.829 3.35 1.829 1.022 0 1.945-.397 2.653-1.029l5.584 3.723c-.143.411-.237.846-.237 1.306 0 2.206 1.794 4 4 4s4-1.794 4-4-1.794-4-4-4c-1.022 0-1.945.397-2.653 1.029l-5.584-3.723c.143-.411.237-.846.237-1.306 0-2.206-1.794-4-4-4s-4 1.794-4 4c0 .092.021.179.027.27l-4.677 1.559c-.713-1.098-1.946-1.829-3.35-1.829-2.206 0-4 1.794-4 4s1.794 4 4 4zm24-2c1.103 0 2 .897 2 2s-.897 2-2 2-2-.897-2-2 .897-2 2-2zm-12-8c1.103 0 2 .897 2 2s-.897 2-2 2-2-.897-2-2 .897-2 2-2zm-12 4c1.103 0 2 .897 2 2s-.897 2-2 2-2-.897-2-2 .897-2 2-2z"/><path d="m13 42h2v2h-2z"/><path d="m13 38h2v2h-2z"/></g></svg>