<svg id="Capa_1" enable-background="new 0 0 512 512" height="512" viewBox="0 0 512 512" width="512" xmlns="http://www.w3.org/2000/svg"><g><path d="m474.5 7.5-218.5 248.5 218.5 248.5h30v-497z" fill="#a6cef4"/><path d="m7.5 7.5h467v497h-467z" fill="#b3efff"/><path d="m504.5 0h-497c-4.142 0-7.5 3.358-7.5 7.5v233.5c0 4.142 3.358 7.5 7.5 7.5s7.5-3.358 7.5-7.5v-226h482v482h-482v-226c0-4.142-3.358-7.5-7.5-7.5s-7.5 3.358-7.5 7.5v233.5c0 4.142 3.358 7.5 7.5 7.5h497c4.142 0 7.5-3.358 7.5-7.5v-497c0-4.142-3.358-7.5-7.5-7.5z"/></g></svg>